<svg width="90" height="90" viewBox="0 0 90 90" fill="none" xmlns="http://www.w3.org/2000/svg">
<path d="M0 45C0 20.1472 20.1472 0 45 0C69.8528 0 90 20.1472 90 45C90 69.8528 69.8528 90 45 90C20.1472 90 0 69.8528 0 45Z" fill="#4192e3"/>
<path d="M64.8134 25.1866C63.2081 23.5814 60.5974 23.6082 59.0255 25.2462L50.4216 34.2119L29.4248 27.2633L25.0172 31.671L42.5187 42.447L33.663 51.6751L27.9838 50.7427L24 54.7265L32.3491 57.6509L35.2735 66L39.2573 62.0162L38.3249 56.3371L47.553 47.4814L58.329 64.9828L62.7367 60.5751L55.7882 39.5783L64.7538 30.9745C66.3918 29.4026 66.4186 26.7919 64.8134 25.1866Z" fill="white"/>
</svg>
